<?xml version="1.0" encoding="UTF-8"?>
<!DOCTYPE svg PUBLIC "-//W3C//DTD SVG 1.1//EN" "http://www.w3.org/Graphics/SVG/1.1/DTD/svg11.dtd">
<!-- Creator: CorelDRAW X7 -->
<svg xmlns="http://www.w3.org/2000/svg" xml:space="preserve" width="12.192mm" height="12.192mm" version="1.1" style="shape-rendering:geometricPrecision; text-rendering:geometricPrecision; image-rendering:optimizeQuality; fill-rule:evenodd; clip-rule:evenodd"
viewBox="0 0 1219 1219"
 xmlns:xlink="http://www.w3.org/1999/xlink">
 <defs>
  <style type="text/css">
   <![CDATA[
    .fil2 {fill:#FEFEFE}
    .fil0 {fill:#BC272B}
    .fil1 {fill:#A6282C}
   ]]>
  </style>
 </defs>
 <g id="Layer_x0020_1">
  <metadata id="CorelCorpID_0Corel-Layer"/>
  <g id="_831938576">
   <circle class="fil0" cx="610" cy="610" r="610"/>
   <path class="fil1" d="M345 345l13 -12c4,-4 9,-8 14,-12l14 -11c5,-4 9,-7 14,-11l16 -9c5,-4 10,-7 15,-9l16 -9c6,-2 11,-5 17,-7l17 -7c6,-2 11,-4 17,-6l18 -5c6,-1 12,-3 18,-4l19 -3c6,-1 12,-2 18,-3l19 -1c7,0 13,-1 20,-1l19 1c6,0 13,1 19,1l19 3c6,1 12,2 18,3l18 4c6,2 12,3 18,5l17 6c6,2 12,4 17,7l17 7c5,3 11,6 16,9l16 9c5,3 10,6 15,9l14 11c5,3 10,7 15,11l13 12c5,4 9,8 13,12l13 13c4,4 8,9 11,14l11 14c4,5 8,9 11,14l10 16c3,5 6,10 9,15l8 16c3,6 5,11 7,17l7 17c2,6 4,11 6,17l5 18c2,6 3,12 4,18l3 19c1,6 2,12 3,18l1 19c1,7 1,13 1,20l-1 19c0,6 -1,13 -1,19l-3 19c0,6 -2,12 -3,18l-4 18c-2,6 -3,12 -5,18l-6 17c-2,6 -4,12 -7,17l-7 17c-3,5 -5,11 -8,16l-9 16c-4,5 -7,10 -10,15l-11 14c-3,5 -7,10 -11,15l-11 13c-4,5 -9,9 -13,13l13 -13c4,-4 8,-9 11,-13l11 -15c4,-4 8,-9 11,-14l10 -15c3,-6 6,-11 9,-16l8 -16c3,-6 5,-11 7,-17l7 -17c2,-5 4,-11 6,-17l5 -18c2,-6 3,-12 4,-18l3 -18c1,-7 2,-13 3,-19l1 -19c1,-7 1,-13 1,-19l-1 -20c0,-6 -1,-12 -1,-19l-3 -18c0,-7 -2,-13 -3,-19l-4 -18c-2,-6 -3,-12 -5,-18l-6 -17c-2,-6 -4,-11 -7,-17l-7 -17c-3,-5 -5,-10 -8,-16l-9 -15c-4,-6 -7,-11 -10,-16l-11 -14c-3,-5 -7,-10 -11,-14l-11 -14c-4,-4 -9,-9 -13,-13l-13 -12c-4,-4 -9,-8 -13,-12l-15 -11c-4,-4 -9,-7 -14,-11l-15 -9c-6,-4 -11,-7 -16,-9l-16 -9c-6,-2 -11,-5 -17,-7l-17 -7c-5,-2 -11,-4 -17,-6l-18 -5c-6,-1 -12,-3 -18,-4l-18 -3c-7,-1 -13,-2 -19,-3l-19 -1c-7,0 -13,-1 -19,-1l-20 1c-6,0 -12,1 -19,1l-18 3c-7,1 -13,2 -19,3l-18 4c-6,2 -12,3 -18,5l-17 6c-6,2 -11,4 -17,7l-17 7c-5,3 -10,6 -16,9l-15 9c-6,3 -11,6 -16,9l-14 11c-5,3 -10,7 -14,11l-14 12c-4,4 -9,8 -13,12zm265 874c16,0 32,0 48,-2l277 -282c83,-83 135,-198 135,-325 0,-255 -206,-461 -460,-461 -128,0 -243,52 -326,135l-283 288c-1,12 -1,25 -1,38 0,336 273,609 610,609z"/>
   <path class="fil2" d="M610 149c254,0 460,206 460,461 0,254 -206,460 -460,460 -255,0 -461,-206 -461,-460 0,-255 206,-461 461,-461zm0 86c206,0 374,168 374,375 0,206 -168,374 -374,374 -207,0 -375,-168 -375,-374 0,-207 168,-375 375,-375zm0 75c165,0 299,134 299,300 0,110 -59,206 -148,258l0 -98c33,-32 57,-74 65,-120l-151 0 -5 -9c22,-17 37,-42 39,-71l117 0c-18,-103 -108,-181 -216,-181 -108,0 -198,78 -217,181l117 0c3,29 17,54 39,71l-5 9 -151 0c8,46 32,88 65,120l0 98c-88,-52 -148,-148 -148,-258 0,-166 134,-300 300,-300zm-88 252c0,-48 39,-88 88,-88 48,0 87,40 87,88 0,32 -17,61 -44,76l9 15 53 92 -105 0 -106 0 53 -92 9 -15c-26,-15 -44,-44 -44,-76z"/>
   <path class="fil2" d="M610 149c254,0 460,206 460,461 0,254 -206,460 -460,460 -255,0 -461,-206 -461,-460 0,-255 206,-461 461,-461zm0 86c206,0 374,168 374,375 0,206 -168,374 -374,374 -207,0 -375,-168 -375,-374 0,-207 168,-375 375,-375zm0 75c165,0 299,134 299,300 0,110 -59,206 -148,258l0 -98c33,-32 57,-74 65,-120l-151 0 -5 -9c22,-17 37,-42 39,-71l117 0c-18,-103 -108,-181 -216,-181 -108,0 -198,78 -217,181l117 0c3,29 17,54 39,71l-5 9 -151 0c8,46 32,88 65,120l0 98c-88,-52 -148,-148 -148,-258 0,-166 134,-300 300,-300zm-88 252c0,-48 39,-88 88,-88 48,0 87,40 87,88 0,32 -17,61 -44,76l9 15 53 92 -105 0 -106 0 53 -92 9 -15c-26,-15 -44,-44 -44,-76z"/>
  </g>
 </g>
</svg>
