<?xml version="1.0" encoding="UTF-8"?>
<!DOCTYPE svg PUBLIC "-//W3C//DTD SVG 1.1//EN" "http://www.w3.org/Graphics/SVG/1.1/DTD/svg11.dtd">
<!-- Creator: CorelDRAW X7 -->
<svg xmlns="http://www.w3.org/2000/svg" xml:space="preserve" width="43.3492mm" height="43.3492mm" version="1.1" style="shape-rendering:geometricPrecision; text-rendering:geometricPrecision; image-rendering:optimizeQuality; fill-rule:evenodd; clip-rule:evenodd"
viewBox="0 0 4335 4335"
 xmlns:xlink="http://www.w3.org/1999/xlink">
 <defs>
  <style type="text/css">
   <![CDATA[
    .fil1 {fill:#FEFEFE}
    .fil0 {fill:#332C2B}
   ]]>
  </style>
 </defs>
 <g id="Layer_x0020_1">
  <metadata id="CorelCorpID_0Corel-Layer"/>
  <circle class="fil0" cx="2167" cy="2167" r="2167"/>
  <path class="fil1" d="M2167 530c905,0 1637,733 1637,1637 0,905 -732,1637 -1637,1637 -904,0 -1637,-732 -1637,-1637 0,-904 733,-1637 1637,-1637zm0 307c735,0 1331,596 1331,1330 0,735 -596,1331 -1331,1331 -734,0 -1330,-596 -1330,-1331 0,-734 596,-1330 1330,-1330zm0 265c589,0 1066,477 1066,1065 0,392 -212,735 -527,920l0 -350c118,-112 202,-261 232,-428l-539 0 -17 -30c78,-59 130,-150 138,-253l418 0c-67,-365 -386,-642 -771,-642 -384,0 -703,277 -770,642l418 0c8,103 60,194 138,253l-17 30 -539 0c30,167 114,316 232,428l0 350c-315,-185 -527,-528 -527,-920 0,-588 477,-1065 1065,-1065zm-311 896c0,-172 140,-311 312,-311 171,0 311,139 311,311 0,115 -63,216 -156,270l32 55 188 325 -375 0 -376 0 188 -325 32 -55c-93,-54 -156,-155 -156,-270z"/>
  <path class="fil1" d="M2167 530c905,0 1637,733 1637,1637 0,905 -732,1637 -1637,1637 -904,0 -1637,-732 -1637,-1637 0,-904 733,-1637 1637,-1637zm0 307c735,0 1331,596 1331,1330 0,735 -596,1331 -1331,1331 -734,0 -1330,-596 -1330,-1331 0,-734 596,-1330 1330,-1330zm0 265c589,0 1066,477 1066,1065 0,392 -212,735 -527,920l0 -350c118,-112 202,-261 232,-428l-539 0 -17 -30c78,-59 130,-150 138,-253l418 0c-67,-365 -386,-642 -771,-642 -384,0 -703,277 -770,642l418 0c8,103 60,194 138,253l-17 30 -539 0c30,167 114,316 232,428l0 350c-315,-185 -527,-528 -527,-920 0,-588 477,-1065 1065,-1065zm-311 896c0,-172 140,-311 312,-311 171,0 311,139 311,311 0,115 -63,216 -156,270l32 55 188 325 -375 0 -376 0 188 -325 32 -55c-93,-54 -156,-155 -156,-270z"/>
 </g>
</svg>
