<?xml version="1.0" encoding="UTF-8"?>
<!DOCTYPE svg PUBLIC "-//W3C//DTD SVG 1.1//EN" "http://www.w3.org/Graphics/SVG/1.1/DTD/svg11.dtd">
<!-- Creator: CorelDRAW X7 -->
<svg xmlns="http://www.w3.org/2000/svg" xml:space="preserve" width="5.4186mm" height="5.4186mm" version="1.1" style="shape-rendering:geometricPrecision; text-rendering:geometricPrecision; image-rendering:optimizeQuality; fill-rule:evenodd; clip-rule:evenodd"
viewBox="0 0 542 542"
 xmlns:xlink="http://www.w3.org/1999/xlink">
 <defs>
  <style type="text/css">
   <![CDATA[
    .fil0 {fill:#332C2B}
   ]]>
  </style>
 </defs>
 <g id="Layer_x0020_1">
  <metadata id="CorelCorpID_0Corel-Layer"/>
  <path class="fil0" d="M271 0c150,0 271,121 271,271 0,150 -121,271 -271,271 -150,0 -271,-121 -271,-271 0,-150 121,-271 271,-271zm0 51c122,0 220,98 220,220 0,122 -98,220 -220,220 -122,0 -220,-98 -220,-220 0,-122 98,-220 220,-220zm0 44c97,0 176,79 176,176 0,65 -35,121 -87,152l0 -58c20,-18 33,-43 38,-71l-89 0 -3 -5c13,-9 22,-24 23,-42l69 0c-11,-60 -63,-106 -127,-106 -64,0 -117,46 -128,106l70 0c1,18 10,33 22,42l-2 5 -90 0c5,28 19,53 39,71l0 58c-52,-31 -87,-87 -87,-152 0,-97 79,-176 176,-176zm-52 148c0,-29 23,-52 52,-52 28,0 51,23 51,52 0,19 -10,36 -25,45l5 9 31 53 -62 0 -62 0 31 -53 5 -9c-15,-9 -26,-26 -26,-45z"/>
 </g>
</svg>
