<?xml version="1.0" encoding="UTF-8"?>
<!DOCTYPE svg PUBLIC "-//W3C//DTD SVG 1.1//EN" "http://www.w3.org/Graphics/SVG/1.1/DTD/svg11.dtd">
<!-- Creator: CorelDRAW X7 -->
<svg xmlns="http://www.w3.org/2000/svg" xml:space="preserve" width="43.3492mm" height="15.0706mm" version="1.1" style="shape-rendering:geometricPrecision; text-rendering:geometricPrecision; image-rendering:optimizeQuality; fill-rule:evenodd; clip-rule:evenodd"
viewBox="0 0 4335 1507"
 xmlns:xlink="http://www.w3.org/1999/xlink">
 <defs>
  <style type="text/css">
   <![CDATA[
    .fil0 {fill:#332C2B}
    .fil1 {fill:#332C2B;fill-rule:nonzero}
   ]]>
  </style>
 </defs>
 <g id="Layer_x0020_1">
  <metadata id="CorelCorpID_0Corel-Layer"/>
  <g id="_903582064">
   <path class="fil0" d="M752 0c416,0 753,338 753,754 0,416 -337,753 -753,753 -416,0 -754,-337 -754,-753 0,-416 338,-754 754,-754zm0 141c338,0 612,274 612,613 0,338 -274,612 -612,612 -339,0 -613,-274 -613,-612 0,-339 274,-613 613,-613z"/>
   <path class="fil0" d="M752 263c270,0 490,220 490,491 0,180 -98,337 -243,422l0 -76 4 0 -4 -6 0 -79c55,-51 93,-119 107,-196l-265 0 -14 -24c32,-24 53,-62 53,-105l0 -2 226 0c-31,-168 -178,-295 -354,-295 -177,0 -324,127 -355,295l226 0 0 2c0,43 21,81 54,105l-14 24 -266 0c14,77 52,145 107,196l0 79 -4 6 4 0 0 76c-145,-85 -243,-242 -243,-422 0,-271 220,-491 491,-491zm-116 428c0,-64 52,-116 116,-116 64,0 115,52 115,116 0,42 -23,80 -57,100l11 21 70 120 -139 0 -140 0 70 -120 12 -21c-35,-20 -58,-58 -58,-100z"/>
   <path class="fil1" d="M2123 838l265 0 -122 -329 -22 0 -121 329zm-149 217l225 -611 112 0 227 611 -70 0 -58 -156 -310 0 -57 156 -69 0zm640 -611l68 0 0 401c0,40 2,67 7,83 4,15 11,28 22,38 11,10 24,16 39,20 15,4 41,6 78,6l65 0c37,0 64,-2 79,-6 15,-4 28,-10 39,-20 10,-10 18,-22 22,-38 4,-15 6,-43 6,-83l0 -401 68 0 0 410c0,78 -15,132 -46,163 -31,31 -85,46 -163,46l-74 0c-78,0 -133,-15 -164,-46 -30,-31 -46,-85 -46,-163l0 -410zm897 65l-195 0 0 245 195 0c51,0 85,-7 100,-19 16,-13 24,-36 24,-68l0 -72c0,-33 -7,-55 -23,-68 -15,-12 -49,-18 -101,-18zm-262 546l0 -611 276 0c69,0 116,10 142,31 26,20 39,56 39,109l0 92c0,32 -7,57 -20,75 -13,19 -33,30 -59,35 29,6 49,19 61,37 12,18 18,47 18,86l0 146 -71 0 0 -126c0,-43 -7,-73 -21,-88 -14,-16 -41,-24 -81,-24l-217 0 0 238 -67 0zm673 -217l265 0 -122 -329 -22 0 -121 329zm-150 217l226 -611 112 0 227 611 -70 0 -58 -156 -310 0 -57 156 -70 0z"/>
  </g>
 </g>
</svg>
