<?xml version="1.0" encoding="UTF-8"?>
<!DOCTYPE svg PUBLIC "-//W3C//DTD SVG 1.1//EN" "http://www.w3.org/Graphics/SVG/1.1/DTD/svg11.dtd">
<!-- Creator: CorelDRAW X7 -->
<svg xmlns="http://www.w3.org/2000/svg" xml:space="preserve" width="21.6746mm" height="21.6746mm" version="1.1" style="shape-rendering:geometricPrecision; text-rendering:geometricPrecision; image-rendering:optimizeQuality; fill-rule:evenodd; clip-rule:evenodd"
viewBox="0 0 2167 2167"
 xmlns:xlink="http://www.w3.org/1999/xlink">
 <defs>
  <style type="text/css">
   <![CDATA[
    .fil0 {fill:#332C2B}
   ]]>
  </style>
 </defs>
 <g id="Layer_x0020_1">
  <metadata id="CorelCorpID_0Corel-Layer"/>
  <path class="fil0" d="M1084 0c598,0 1083,485 1083,1084 0,598 -485,1083 -1083,1083 -599,0 -1084,-485 -1084,-1083 0,-599 485,-1084 1084,-1084zm0 203c486,0 881,394 881,881 0,486 -395,881 -881,881 -487,0 -881,-395 -881,-881 0,-487 394,-881 881,-881zm0 176c389,0 705,315 705,705 0,259 -140,486 -349,608l0 -231c79,-75 134,-173 154,-283l-357 0 -11 -20c51,-39 86,-100 91,-168l277 0c-44,-242 -256,-425 -510,-425 -255,0 -466,183 -510,425l276 0c6,68 40,129 92,168l-12 20 -357 0c21,110 76,208 154,283l0 231c-208,-122 -348,-349 -348,-608 0,-390 315,-705 705,-705zm-206 593c0,-114 92,-206 206,-206 114,0 206,92 206,206 0,76 -42,143 -103,178l21 37 124 215 -248 0 -249 0 125 -215 21 -37c-62,-35 -103,-102 -103,-178z"/>
 </g>
</svg>
