<?xml version="1.0" encoding="UTF-8"?>
<!DOCTYPE svg PUBLIC "-//W3C//DTD SVG 1.1//EN" "http://www.w3.org/Graphics/SVG/1.1/DTD/svg11.dtd">
<!-- Creator: CorelDRAW X7 -->
<svg xmlns="http://www.w3.org/2000/svg" xml:space="preserve" width="21.6746mm" height="21.6746mm" version="1.1" style="shape-rendering:geometricPrecision; text-rendering:geometricPrecision; image-rendering:optimizeQuality; fill-rule:evenodd; clip-rule:evenodd"
viewBox="0 0 2167 2167"
 xmlns:xlink="http://www.w3.org/1999/xlink">
 <defs>
  <style type="text/css">
   <![CDATA[
    .fil1 {fill:#FEFEFE}
    .fil0 {fill:#332C2B}
   ]]>
  </style>
 </defs>
 <g id="Layer_x0020_1">
  <metadata id="CorelCorpID_0Corel-Layer"/>
  <g id="_843429168">
   <circle class="fil0" cx="1084" cy="1084" r="1084"/>
   <path class="fil0" d="M613 613l23 -22c8,-7 16,-14 25,-21l25 -19c8,-7 17,-13 26,-19l27 -17c9,-6 18,-11 28,-16l28 -15c10,-5 20,-9 30,-13l30 -12c10,-4 21,-7 31,-11l31 -9c11,-2 22,-5 33,-7l32 -6c11,-1 23,-3 34,-4l34 -3c11,0 22,0 34,0l34 0c11,1 23,2 34,3l33 4c11,2 22,4 33,6l32 7c11,3 21,6 32,9l30 11c11,4 21,8 31,12l29 13c10,5 19,10 29,15l28 16c9,5 18,11 27,17l26 19c8,6 17,13 25,19l24 21c8,7 16,15 23,22l22 23c7,8 14,16 21,25l20 25c6,8 12,17 18,26l18 27c5,9 11,18 16,28l14 28c5,10 9,20 14,30l12 30c3,10 7,21 10,31l9 31c3,11 5,22 7,33l6 32c2,11 3,23 5,34l2 34c1,11 1,22 1,34l-1 34c-1,11 -1,23 -2,34l-5 33c-1,11 -3,22 -6,33l-7 32c-3,11 -6,21 -9,32l-10 30c-4,11 -8,21 -12,31l-14 29c-4,10 -9,19 -14,29l-16 28c-6,9 -12,18 -18,27l-18 26c-7,8 -13,17 -20,25l-21 24c-7,8 -14,16 -22,23l22 -23c7,-8 14,-16 21,-24l20 -25c6,-9 12,-17 18,-26l18 -27c5,-9 11,-19 16,-28l14 -29c5,-10 9,-19 14,-29l12 -31c3,-10 7,-20 10,-30l9 -32c3,-11 5,-21 7,-32l6 -33c2,-11 3,-22 5,-33l2 -34c1,-11 1,-23 1,-34l-1 -34c-1,-12 -1,-23 -2,-34l-5 -34c-1,-11 -3,-22 -6,-32l-7 -33c-3,-10 -6,-21 -9,-31l-10 -31c-4,-10 -8,-20 -12,-30l-14 -30c-4,-9 -9,-19 -14,-28l-16 -28c-6,-9 -12,-18 -18,-27l-18 -26c-7,-9 -13,-17 -20,-25l-21 -25c-7,-7 -14,-15 -22,-23l-23 -22c-8,-7 -16,-14 -24,-21l-25 -19c-9,-7 -17,-13 -26,-19l-27 -17c-9,-6 -19,-11 -28,-16l-29 -15c-10,-5 -19,-9 -29,-13l-31 -12c-10,-4 -20,-7 -30,-11l-32 -9c-11,-2 -21,-5 -32,-7l-33 -6c-11,-1 -22,-3 -33,-4l-34 -3c-11,0 -23,0 -34,0l-34 0c-12,1 -23,2 -34,3l-34 4c-11,2 -22,4 -32,6l-33 7c-10,3 -21,6 -31,9l-31 11c-10,4 -20,8 -30,12l-30 13c-9,5 -19,10 -28,15l-28 16c-9,5 -18,11 -27,17l-26 19c-9,6 -17,13 -25,19l-25 21c-7,7 -15,15 -23,22zm471 1554c29,0 57,-1 86,-3l492 -502c149,-148 240,-352 240,-578 0,-452 -366,-819 -818,-819 -226,0 -431,92 -579,240l-503 512c-1,22 -2,44 -2,67 0,598 485,1083 1084,1083z"/>
   <path class="fil1" d="M1084 265c452,0 818,367 818,819 0,452 -366,818 -818,818 -452,0 -819,-366 -819,-818 0,-452 367,-819 819,-819zm0 154c367,0 665,297 665,665 0,367 -298,665 -665,665 -368,0 -665,-298 -665,-665 0,-368 297,-665 665,-665zm0 132c294,0 532,239 532,533 0,196 -105,367 -263,459l0 -175c59,-56 101,-130 116,-213l-269 0 -9 -15c39,-30 65,-75 69,-127l209 0c-33,-183 -193,-321 -385,-321 -192,0 -352,138 -386,321l210 0c3,52 30,97 69,127l-9 15 -270 0c16,83 57,157 116,213l0 175c-157,-92 -263,-263 -263,-459 0,-294 239,-533 533,-533zm-156 448c0,-86 70,-156 156,-156 86,0 155,70 155,156 0,58 -31,108 -77,135l16 28 93 162 -187 0 -188 0 94 -162 16 -28c-47,-27 -78,-77 -78,-135z"/>
   <path class="fil1" d="M1084 265c452,0 818,367 818,819 0,452 -366,818 -818,818 -452,0 -819,-366 -819,-818 0,-452 367,-819 819,-819zm0 154c367,0 665,297 665,665 0,367 -298,665 -665,665 -368,0 -665,-298 -665,-665 0,-368 297,-665 665,-665zm0 132c294,0 532,239 532,533 0,196 -105,367 -263,459l0 -175c59,-56 101,-130 116,-213l-269 0 -9 -15c39,-30 65,-75 69,-127l209 0c-33,-183 -193,-321 -385,-321 -192,0 -352,138 -386,321l210 0c3,52 30,97 69,127l-9 15 -270 0c16,83 57,157 116,213l0 175c-157,-92 -263,-263 -263,-459 0,-294 239,-533 533,-533zm-156 448c0,-86 70,-156 156,-156 86,0 155,70 155,156 0,58 -31,108 -77,135l16 28 93 162 -187 0 -188 0 94 -162 16 -28c-47,-27 -78,-77 -78,-135z"/>
  </g>
 </g>
</svg>
