<?xml version="1.0" encoding="UTF-8"?>
<!DOCTYPE svg PUBLIC "-//W3C//DTD SVG 1.1//EN" "http://www.w3.org/Graphics/SVG/1.1/DTD/svg11.dtd">
<!-- Creator: CorelDRAW X7 -->
<svg xmlns="http://www.w3.org/2000/svg" xml:space="preserve" width="43.3492mm" height="43.3492mm" version="1.1" style="shape-rendering:geometricPrecision; text-rendering:geometricPrecision; image-rendering:optimizeQuality; fill-rule:evenodd; clip-rule:evenodd"
viewBox="0 0 4335 4335"
 xmlns:xlink="http://www.w3.org/1999/xlink">
 <defs>
  <style type="text/css">
   <![CDATA[
    .fil0 {fill:#FEFEFE}
    .fil1 {fill:#332C2B}
   ]]>
  </style>
 </defs>
 <g id="Layer_x0020_1">
  <metadata id="CorelCorpID_0Corel-Layer"/>
  <path class="fil0" d="M2167 0c1198,0 2168,970 2168,2167 0,1198 -970,2168 -2168,2168 -1197,0 -2167,-970 -2167,-2168 0,-1197 970,-2167 2167,-2167zm0 406c973,0 1762,789 1762,1761 0,973 -789,1762 -1762,1762 -972,0 -1761,-789 -1761,-1762 0,-972 789,-1761 1761,-1761zm0 351c779,0 1411,631 1411,1410 0,519 -280,973 -698,1218l0 -464c157,-148 268,-345 308,-566l-714 0 -23 -39c103,-79 173,-199 183,-336l554 0c-88,-484 -512,-850 -1021,-850 -508,0 -932,366 -1020,850l554 0c10,137 80,257 183,336l-23 39 -714 0c40,221 151,418 307,566l0 464c-417,-245 -697,-699 -697,-1218 0,-779 631,-1410 1410,-1410zm-412 1186c0,-227 185,-412 413,-412 227,0 412,185 412,412 0,153 -83,286 -206,357l42 74 248 430 -496 0 -497 0 248 -430 42 -74c-123,-71 -206,-204 -206,-357z"/>
  <path class="fil1" d="M2167 0c1198,0 2168,970 2168,2167 0,1198 -970,2168 -2168,2168 -1197,0 -2167,-970 -2167,-2168 0,-1197 970,-2167 2167,-2167zm0 406c973,0 1762,789 1762,1761 0,973 -789,1762 -1762,1762 -972,0 -1761,-789 -1761,-1762 0,-972 789,-1761 1761,-1761zm0 351c779,0 1411,631 1411,1410 0,519 -280,973 -698,1218l0 -464c157,-148 268,-345 308,-566l-714 0 -23 -39c103,-79 173,-199 183,-336l554 0c-88,-484 -512,-850 -1021,-850 -508,0 -932,366 -1020,850l554 0c10,137 80,257 183,336l-23 39 -714 0c40,221 151,418 307,566l0 464c-417,-245 -697,-699 -697,-1218 0,-779 631,-1410 1410,-1410zm-412 1186c0,-227 185,-412 413,-412 227,0 412,185 412,412 0,153 -83,286 -206,357l42 74 248 430 -496 0 -497 0 248 -430 42 -74c-123,-71 -206,-204 -206,-357z"/>
 </g>
</svg>
