<?xml version="1.0" encoding="UTF-8"?>
<!DOCTYPE svg PUBLIC "-//W3C//DTD SVG 1.1//EN" "http://www.w3.org/Graphics/SVG/1.1/DTD/svg11.dtd">
<!-- Creator: CorelDRAW X7 -->
<svg xmlns="http://www.w3.org/2000/svg" xml:space="preserve" width="43.3492mm" height="43.3492mm" version="1.1" style="shape-rendering:geometricPrecision; text-rendering:geometricPrecision; image-rendering:optimizeQuality; fill-rule:evenodd; clip-rule:evenodd"
viewBox="0 0 4335 4335"
 xmlns:xlink="http://www.w3.org/1999/xlink">
 <defs>
  <style type="text/css">
   <![CDATA[
    .fil0 {fill:#FEFEFE}
    .fil1 {fill:#BC272B}
    .fil2 {fill:#A6282C}
   ]]>
  </style>
 </defs>
 <g id="Layer_x0020_1">
  <metadata id="CorelCorpID_0Corel-Layer"/>
  <path class="fil0" d="M2167 0c1198,0 2168,970 2168,2167 0,1198 -970,2168 -2168,2168 -1197,0 -2167,-970 -2167,-2168 0,-1197 970,-2167 2167,-2167zm0 406c973,0 1762,789 1762,1761 0,973 -789,1762 -1762,1762 -972,0 -1761,-789 -1761,-1762 0,-972 789,-1761 1761,-1761zm0 351c779,0 1411,631 1411,1410 0,519 -280,973 -698,1218l0 -464c157,-148 268,-345 308,-566l-714 0 -23 -39c103,-79 173,-199 183,-336l554 0c-88,-484 -512,-850 -1021,-850 -508,0 -932,366 -1020,850l554 0c10,137 80,257 183,336l-23 39 -714 0c40,221 151,418 307,566l0 464c-417,-245 -697,-699 -697,-1218 0,-779 631,-1410 1410,-1410zm-412 1186c0,-227 185,-412 413,-412 227,0 412,185 412,412 0,153 -83,286 -206,357l42 74 248 430 -496 0 -497 0 248 -430 42 -74c-123,-71 -206,-204 -206,-357z"/>
  <g id="_785015456">
   <circle class="fil1" cx="2167" cy="2167" r="2167"/>
   <path class="fil2" d="M1227 1227l46 -44c16,-15 32,-29 48,-42l50 -40c18,-12 35,-25 53,-37l54 -34c18,-11 36,-22 55,-32l58 -30c19,-9 39,-18 59,-26l60 -24c20,-8 41,-15 62,-21l63 -18c21,-6 43,-10 64,-15l66 -12c22,-3 44,-6 66,-8l68 -5c23,-1 46,-2 68,-2l69 2c23,1 45,3 67,5l67 8c22,4 44,8 66,12l64 15c21,5 42,11 63,18l62 21c20,7 40,15 60,24l59 26c20,10 39,19 58,30l55 32c19,11 37,22 54,34l52 37c18,13 34,26 51,40l48 42c16,14 31,29 46,44l44 46c15,16 28,32 42,48l40 50c12,18 25,35 37,53l34 54c11,18 22,36 32,55l30 58c9,19 18,39 26,59l24 60c8,20 15,41 21,62l18 63c5,21 10,43 15,64l12 66c3,22 6,44 8,66l5 68c1,23 2,46 2,68l-2 69c-1,23 -3,45 -5,67l-8 67c-4,22 -8,44 -12,66l-15 64c-6,21 -11,42 -18,63l-21 62c-7,20 -15,40 -24,60l-26 59c-10,20 -19,39 -30,58l-32 55c-11,19 -22,37 -34,54l-37 52c-13,18 -26,34 -40,51l-42 48c-14,16 -29,31 -44,46l44 -46c15,-16 28,-32 42,-48l40 -51c12,-17 25,-34 37,-52l34 -54c11,-18 22,-37 32,-55l30 -58c9,-19 18,-39 26,-59l24 -60c8,-20 15,-41 21,-62l18 -63c5,-21 10,-43 15,-64l12 -66c3,-22 6,-44 8,-67l5 -67c1,-23 2,-46 2,-69l-2 -68c-1,-23 -3,-45 -5,-68l-8 -66c-4,-22 -8,-44 -12,-66l-15 -64c-6,-21 -11,-42 -18,-63l-21 -62c-7,-20 -15,-41 -24,-60l-26 -59c-10,-20 -19,-39 -30,-58l-32 -55c-11,-19 -22,-37 -34,-54l-37 -53c-13,-17 -26,-33 -40,-50l-42 -48c-14,-16 -29,-31 -44,-46l-46 -44c-16,-15 -32,-29 -48,-42l-51 -40c-17,-12 -34,-25 -52,-37l-54 -34c-18,-11 -37,-22 -55,-32l-58 -30c-19,-9 -39,-18 -59,-26l-60 -24c-20,-8 -41,-15 -62,-21l-63 -18c-21,-5 -43,-10 -64,-15l-66 -12c-22,-3 -44,-6 -67,-8l-67 -5c-23,-1 -46,-2 -69,-2l-68 2c-23,1 -45,3 -68,5l-66 8c-22,4 -44,8 -66,12l-64 15c-21,5 -42,11 -63,18l-62 21c-20,7 -40,15 -60,24l-59 26c-20,10 -39,19 -58,30l-55 32c-19,11 -37,22 -54,34l-53 37c-17,13 -33,26 -50,40l-48 42c-16,14 -31,29 -46,44zm940 3108c58,0 116,-2 173,-7l985 -1003c296,-296 479,-706 479,-1158 0,-904 -732,-1637 -1637,-1637 -452,0 -861,184 -1157,480l-1006 1024c-2,44 -4,89 -4,133 0,1198 970,2168 2167,2168z"/>
   <path class="fil0" d="M2167 530c905,0 1637,733 1637,1637 0,905 -732,1637 -1637,1637 -904,0 -1637,-732 -1637,-1637 0,-904 733,-1637 1637,-1637zm0 307c735,0 1331,596 1331,1330 0,735 -596,1331 -1331,1331 -734,0 -1330,-596 -1330,-1331 0,-734 596,-1330 1330,-1330zm0 265c589,0 1066,477 1066,1065 0,392 -212,735 -527,920l0 -350c118,-112 202,-261 232,-428l-539 0 -17 -30c78,-59 130,-150 138,-253l418 0c-67,-365 -386,-642 -771,-642 -384,0 -703,277 -770,642l418 0c8,103 60,194 138,253l-17 30 -539 0c30,167 114,316 232,428l0 350c-315,-185 -527,-528 -527,-920 0,-588 477,-1065 1065,-1065zm-311 896c0,-172 140,-311 312,-311 171,0 311,139 311,311 0,115 -63,216 -156,270l32 55 188 325 -375 0 -376 0 188 -325 32 -55c-93,-54 -156,-155 -156,-270z"/>
   <path class="fil0" d="M2167 530c905,0 1637,733 1637,1637 0,905 -732,1637 -1637,1637 -904,0 -1637,-732 -1637,-1637 0,-904 733,-1637 1637,-1637zm0 307c735,0 1331,596 1331,1330 0,735 -596,1331 -1331,1331 -734,0 -1330,-596 -1330,-1331 0,-734 596,-1330 1330,-1330zm0 265c589,0 1066,477 1066,1065 0,392 -212,735 -527,920l0 -350c118,-112 202,-261 232,-428l-539 0 -17 -30c78,-59 130,-150 138,-253l418 0c-67,-365 -386,-642 -771,-642 -384,0 -703,277 -770,642l418 0c8,103 60,194 138,253l-17 30 -539 0c30,167 114,316 232,428l0 350c-315,-185 -527,-528 -527,-920 0,-588 477,-1065 1065,-1065zm-311 896c0,-172 140,-311 312,-311 171,0 311,139 311,311 0,115 -63,216 -156,270l32 55 188 325 -375 0 -376 0 188 -325 32 -55c-93,-54 -156,-155 -156,-270z"/>
  </g>
 </g>
</svg>
