<?xml version="1.0" encoding="UTF-8"?>
<!DOCTYPE svg PUBLIC "-//W3C//DTD SVG 1.1//EN" "http://www.w3.org/Graphics/SVG/1.1/DTD/svg11.dtd">
<!-- Creator: CorelDRAW X7 -->
<svg xmlns="http://www.w3.org/2000/svg" xml:space="preserve" width="5.4186mm" height="5.4186mm" version="1.1" style="shape-rendering:geometricPrecision; text-rendering:geometricPrecision; image-rendering:optimizeQuality; fill-rule:evenodd; clip-rule:evenodd"
viewBox="0 0 542 542"
 xmlns:xlink="http://www.w3.org/1999/xlink">
 <defs>
  <style type="text/css">
   <![CDATA[
    .fil1 {fill:#FEFEFE}
    .fil0 {fill:#332C2B}
   ]]>
  </style>
 </defs>
 <g id="Layer_x0020_1">
  <metadata id="CorelCorpID_0Corel-Layer"/>
  <g id="_784508336">
   <circle class="fil0" cx="271" cy="271" r="271"/>
   <path class="fil0" d="M153 153l6 -5c2,-2 4,-4 6,-5l6 -5c3,-2 5,-3 7,-5l7 -4c2,-2 4,-3 7,-4l7 -4c2,-1 5,-2 7,-3l8 -3c2,-1 5,-2 7,-3l8 -2c3,-1 6,-1 8,-2l9 -1c2,-1 5,-1 8,-2l8 0c3,0 6,0 9,0l8 0c3,0 6,0 9,0l8 2c3,0 6,0 8,1l8 2c3,1 6,1 8,2l8 3c3,1 5,2 8,3l7 3c2,1 5,2 7,4l7 4c2,1 5,3 7,4l6 5c3,1 5,3 7,5l6 5c2,2 4,3 6,5l5 6c2,2 4,4 5,6l5 6c2,3 3,5 5,7l4 7c2,2 3,4 4,7l4 7c1,2 2,5 3,7l3 8c1,2 2,5 3,7l2 8c1,3 1,6 2,8l1 9c1,2 1,5 1,8l1 8c0,3 0,6 0,9l0 8c0,3 0,6 -1,9l-1 8c0,3 -1,6 -1,8l-2 8c-1,3 -1,6 -2,8l-3 8c-1,3 -2,5 -3,8l-3 7c-1,2 -3,5 -4,7l-4 7c-1,2 -3,5 -4,7l-5 6c-1,3 -3,5 -5,7l-5 6c-2,2 -4,4 -5,6l5 -6c2,-2 4,-4 5,-6l5 -7c2,-2 3,-4 5,-6l4 -7c2,-2 3,-4 4,-7l4 -7c1,-2 2,-5 3,-7l3 -8c1,-2 2,-5 3,-8l2 -8c1,-2 1,-5 2,-8l1 -8c1,-2 1,-5 1,-8l1 -9c0,-2 0,-5 0,-8l0 -9c0,-2 0,-5 -1,-8l-1 -8c0,-3 -1,-6 -1,-9l-2 -8c-1,-2 -1,-5 -2,-8l-3 -7c-1,-3 -2,-5 -3,-8l-3 -7c-1,-3 -3,-5 -4,-7l-4 -7c-1,-3 -3,-5 -4,-7l-5 -7c-1,-2 -3,-4 -5,-6l-5 -6c-2,-2 -4,-4 -5,-6l-6 -5c-2,-2 -4,-4 -6,-5l-7 -5c-2,-2 -4,-3 -6,-5l-7 -4c-2,-2 -4,-3 -7,-4l-7 -4c-2,-1 -5,-2 -7,-3l-8 -3c-2,-1 -5,-2 -8,-3l-8 -2c-2,-1 -5,-1 -8,-2l-8 -1c-2,-1 -5,-1 -8,-2l-9 0c-2,0 -5,0 -8,0l-9 0c-2,0 -5,0 -8,0l-8 2c-3,0 -6,0 -9,1l-8 2c-2,1 -5,1 -8,2l-7 3c-3,1 -5,2 -8,3l-7 3c-3,1 -5,2 -7,4l-7 4c-3,1 -5,3 -7,4l-7 5c-2,1 -4,3 -6,5l-6 5c-2,2 -4,3 -6,5zm118 389c7,0 14,0 21,-1l124 -125c37,-37 60,-89 60,-145 0,-113 -92,-205 -205,-205 -57,0 -108,23 -145,60l-125 128c-1,6 -1,11 -1,17 0,150 121,271 271,271z"/>
   <path class="fil1" d="M271 66c113,0 205,92 205,205 0,113 -92,205 -205,205 -113,0 -205,-92 -205,-205 0,-113 92,-205 205,-205zm0 39c92,0 166,74 166,166 0,92 -74,166 -166,166 -92,0 -166,-74 -166,-166 0,-92 74,-166 166,-166zm0 33c73,0 133,59 133,133 0,49 -26,92 -66,115l0 -44c15,-14 25,-32 29,-53l-67 0 -2 -4c9,-8 16,-19 17,-32l52 0c-8,-45 -48,-80 -96,-80 -48,0 -88,35 -96,80l52 0c1,13 7,24 17,32l-2 4 -67 0c3,21 14,39 29,53l0 44c-40,-23 -66,-66 -66,-115 0,-74 59,-133 133,-133zm-39 112c0,-22 17,-39 39,-39 21,0 39,17 39,39 0,14 -8,27 -20,33l4 7 24 41 -47 0 -47 0 23 -41 4 -7c-11,-6 -19,-19 -19,-33z"/>
   <path class="fil1" d="M271 66c113,0 205,92 205,205 0,113 -92,205 -205,205 -113,0 -205,-92 -205,-205 0,-113 92,-205 205,-205zm0 39c92,0 166,74 166,166 0,92 -74,166 -166,166 -92,0 -166,-74 -166,-166 0,-92 74,-166 166,-166zm0 33c73,0 133,59 133,133 0,49 -26,92 -66,115l0 -44c15,-14 25,-32 29,-53l-67 0 -2 -4c9,-8 16,-19 17,-32l52 0c-8,-45 -48,-80 -96,-80 -48,0 -88,35 -96,80l52 0c1,13 7,24 17,32l-2 4 -67 0c3,21 14,39 29,53l0 44c-40,-23 -66,-66 -66,-115 0,-74 59,-133 133,-133zm-39 112c0,-22 17,-39 39,-39 21,0 39,17 39,39 0,14 -8,27 -20,33l4 7 24 41 -47 0 -47 0 23 -41 4 -7c-11,-6 -19,-19 -19,-33z"/>
  </g>
 </g>
</svg>
